<svg width="48" height="48" viewBox="0 0 48 48" fill="none" xmlns="http://www.w3.org/2000/svg">
<path d="M43.2281 10.8244L25.4344 1.92754C24.9885 1.70646 24.4976 1.59143 24 1.59143C23.5023 1.59143 23.0114 1.70646 22.5656 1.92754L4.77186 10.8244C4.14397 11.1405 3.63687 11.6534 3.32807 12.2849C3.01927 12.9164 2.92576 13.6316 3.06186 14.3213L5.55373 26.7769C6.57803 31.903 9.47851 36.4624 13.6875 39.5625L22.1025 45.7782C22.6529 46.1884 23.321 46.41 24.0075 46.41C24.694 46.41 25.3621 46.1884 25.9125 45.7782L26.9756 44.9925C26.2684 44.283 25.6472 43.4925 25.125 42.6375L24.1312 43.3707C24.0961 43.3971 24.0533 43.4114 24.0094 43.4114C23.9654 43.4114 23.9226 43.3971 23.8875 43.3707L15.4725 37.155C14.7979 36.6563 14.1583 36.1119 13.5581 35.5257C13.8205 33.9483 14.4363 32.4508 15.3595 31.1451C16.2826 29.8395 17.4891 28.7596 18.8887 27.9863L21 26.8125C22.1415 27.3107 23.3891 27.5168 24.6301 27.4122C25.8712 27.3075 27.0667 26.8954 28.1086 26.2131C29.1506 25.5308 30.0062 24.5998 30.5983 23.5041C31.1904 22.4083 31.5003 21.1824 31.5 19.9369V17.5632C31.5 15.574 30.7098 13.6664 29.3033 12.2599C27.8968 10.8533 25.9891 10.0632 24 10.0632C22.0109 10.0632 20.1032 10.8533 18.6967 12.2599C17.2902 13.6664 16.5 15.574 16.5 17.5632V19.9369C16.4991 21.7456 17.1547 23.4932 18.345 24.855L17.4375 25.3594C14.5371 26.962 12.3216 29.5682 11.2069 32.6888C9.88671 30.7216 8.9679 28.5131 8.50311 26.19L5.99998 13.7325C5.99177 13.6881 5.9981 13.6422 6.01803 13.6017C6.03796 13.5612 6.07042 13.5282 6.11061 13.5075L23.9044 4.61066C23.9336 4.59654 23.9656 4.58921 23.9981 4.58921C24.0306 4.58921 24.0626 4.59654 24.0919 4.61066L41.8856 13.5C41.9258 13.5207 41.9583 13.5537 41.9782 13.5942C41.9981 13.6347 42.0044 13.6806 41.9962 13.725L39.9656 23.8725C40.9484 24.1936 41.888 24.6344 42.7631 25.185L44.9381 14.31C45.0715 13.6221 44.9767 12.9094 44.6681 12.2802C44.3594 11.6511 43.8538 11.1399 43.2281 10.8244ZM19.5 17.5632C19.5 16.3697 19.9741 15.2251 20.818 14.3812C21.6619 13.5373 22.8065 13.0632 24 13.0632C25.1935 13.0632 26.3381 13.5373 27.182 14.3812C28.0259 15.2251 28.5 16.3697 28.5 17.5632V19.9369C28.5 21.1304 28.0259 22.275 27.182 23.1189C26.3381 23.9628 25.1935 24.4369 24 24.4369C22.8065 24.4369 21.6619 23.9628 20.818 23.1189C19.9741 22.275 19.5 21.1304 19.5 19.9369V17.5632Z" fill="url(#paint0_linear_12_156295)"/>
<path d="M43.425 28.575C41.9565 27.1067 40.0856 26.1067 38.0488 25.7017C36.012 25.2966 33.9009 25.5046 31.9823 26.2994C30.0637 27.0941 28.4239 28.4399 27.2702 30.1666C26.1165 31.8933 25.5007 33.9233 25.5007 36C25.5007 38.0767 26.1165 40.1067 27.2702 41.8334C28.4239 43.5601 30.0637 44.9059 31.9823 45.7006C33.9009 46.4954 36.012 46.7034 38.0488 46.2983C40.0856 45.8933 41.9565 44.8933 43.425 43.425C44.4001 42.45 45.1736 41.2924 45.7014 40.0184C46.2291 38.7444 46.5007 37.379 46.5007 36C46.5007 34.621 46.2291 33.2556 45.7014 31.9816C45.1736 30.7076 44.4001 29.55 43.425 28.575ZM42 37.5H37.5V42H34.5V37.5H30V34.5H34.5V30H37.5V34.5H42V37.5Z" fill="url(#paint1_linear_12_156295)"/>
<defs>
<linearGradient id="paint0_linear_12_156295" x1="3.00098" y1="1.59143" x2="28.0678" y2="54.4398" gradientUnits="userSpaceOnUse">
<stop offset="0.272135" stop-color="#34263B"/>
<stop offset="0.658079" stop-color="#13172C"/>
</linearGradient>
<linearGradient id="paint1_linear_12_156295" x1="26.0501" y1="27.1481" x2="43.3526" y2="44.4506" gradientUnits="userSpaceOnUse">
<stop offset="0.35" stop-color="#F7052D"/>
<stop offset="0.85" stop-color="#CA5AFA"/>
</linearGradient>
</defs>
</svg>
