<svg width="86" height="42" viewBox="0 0 86 42" fill="none" xmlns="http://www.w3.org/2000/svg">
<g clip-path="url(#clip0_868_1888)">
<mask id="mask0_868_1888" style="mask-type:luminance" maskUnits="userSpaceOnUse" x="0" y="0" width="86" height="42">
<path d="M85.3883 0H0V42H85.3883V0Z" fill="white"/>
</mask>
<g mask="url(#mask0_868_1888)">
<path d="M10.1237 28.1538H3.14458L0.0136719 41.7696H3.57436L4.75272 36.6466H6.59142L9.76217 41.7696H13.6616L10.1066 36.3477C13.2603 35.5281 14.3333 33.8375 14.5326 32.0302C14.7318 30.2229 13.7242 28.1509 10.1209 28.1509L10.1237 28.1538ZM10.9776 32.2266C10.8296 33.5585 9.58001 34.3441 7.84663 34.3441H5.28498L6.23564 30.2371H8.93675C10.3685 30.2371 11.1142 30.9373 10.9747 32.2266H10.9776ZM20.0857 28.1566H23.6691L22.8351 31.7712L20.5296 41.7639H16.9064L20.0857 28.1566ZM50.3871 27.4024L50.4128 41.761H46.9972L47.0341 31.515L39.779 41.761H36.4688L33.466 31.4581L28.6587 41.761H24.6881L31.7896 26.8161C32.3047 25.8513 32.8028 25.4215 33.782 25.4158C34.4309 25.4158 35.1368 25.7887 35.4584 26.9214L38.5579 38.1322L46.6215 26.6738C47.3075 25.7033 47.8853 25.4073 48.6822 25.4272C49.5361 25.45 50.3899 26.0107 50.3899 27.4024H50.3871ZM74.5491 35.2719C74.3072 37.4606 75.9722 39.1853 78.8868 39.228C80.3191 39.2679 81.7485 39.0757 83.1194 38.6588L82.4277 41.65C81.2484 41.8688 80.0521 41.9831 78.8528 41.9916C73.1204 41.9916 70.4561 39.1455 70.8831 35.2036C71.367 30.7523 75.2949 27.7582 81.4827 27.7582C82.7968 27.7778 84.1053 27.9323 85.3877 28.2193L84.7616 30.9601C83.5502 30.6684 82.3074 30.5269 81.0614 30.5388C77.4523 30.5104 74.8736 32.312 74.552 35.2719H74.5491ZM59.7685 36.675L63.1015 31.9704L64.1432 36.675H59.7685ZM65.3614 41.7639H68.8224L65.5094 29.9098C65.0768 28.4726 64.2256 28.094 63.3405 28.1709C62.7854 28.2193 62.202 28.4555 61.6157 29.2951L53.02 41.7667H56.5465L58.2941 38.9775H64.701L65.3671 41.7753L65.3614 41.7639ZM71.4496 11.3105C70.7238 11.5581 38.6945 20.4181 38.2249 20.5291C37.9068 20.6282 37.5682 20.6414 37.2433 20.5674C36.9184 20.4935 36.6188 20.3349 36.3749 20.1078C35.521 19.3309 35.8711 18.2522 36.1131 17.7057C36.3977 17.0625 42.5656 4.08713 42.5656 4.08713L17.9424 14.4099C16.9149 14.7685 16.5648 13.9233 16.5648 13.9233C16.5648 13.9233 16.135 12.9869 17.2565 12.4575L44.2961 0.313194C44.7401 0.113967 45.5741 -0.278796 46.2229 0.313194C46.8719 0.905185 46.6186 1.79886 46.4193 2.351C46.3226 2.61285 41.8939 14.9137 41.8939 14.9137C41.8939 14.9137 68.2531 3.60329 69.107 3.28168C70.7778 2.647 72.2977 3.02269 73.3764 4.28066C73.8576 4.85632 74.193 5.53946 74.354 6.27221C74.515 7.00496 74.4971 7.76573 74.3016 8.49006C73.9287 9.76227 73.1061 10.7356 71.4553 11.2991L71.4496 11.3105Z" fill="white"/>
</g>
</g>
<defs>
<clipPath id="clip0_868_1888">
<rect width="86" height="42" fill="white"/>
</clipPath>
</defs>
</svg>
