<svg width="20" height="20" viewBox="0 0 20 20" fill="none" xmlns="http://www.w3.org/2000/svg">
<path d="M16.875 13.3813L14.375 11.925C14.1074 11.7656 13.7898 11.7118 13.4846 11.7742C13.1794 11.8366 12.9085 12.0108 12.725 12.2625L11.3625 14.075C10.1117 13.6292 8.96229 12.9387 7.98124 12.0438C7.08567 11.0609 6.39512 9.90929 5.94999 8.65631L7.76249 7.30005C8.01425 7.11654 8.1884 6.84564 8.25083 6.54043C8.31326 6.23521 8.25947 5.91768 8.09999 5.65006L6.61874 3.12505C6.5337 2.96823 6.41607 2.83143 6.27377 2.72384C6.13147 2.61626 5.96778 2.54037 5.79372 2.50129C5.61965 2.46222 5.43924 2.46087 5.26461 2.49731C5.08997 2.53374 4.92516 2.60713 4.78125 2.71255L3.92499 3.33755C3.49707 3.63701 3.14795 4.03558 2.90743 4.4992C2.66691 4.96283 2.54213 5.47776 2.54374 6.00006C2.48212 7.51883 2.75276 9.03274 3.33677 10.4361C3.92078 11.8394 4.80408 13.0984 5.925 14.1251C6.95165 15.246 8.2106 16.1293 9.61395 16.7133C11.0173 17.2973 12.5312 17.5679 14.05 17.5063C14.5723 17.5079 15.0872 17.3831 15.5509 17.1426C16.0145 16.9021 16.413 16.553 16.7125 16.125L17.3375 15.2688C17.4502 15.1205 17.5284 14.9489 17.5663 14.7666C17.6042 14.5842 17.6009 14.3956 17.5566 14.2147C17.5122 14.0338 17.428 13.8651 17.3101 13.7209C17.1922 13.5767 17.0435 13.4607 16.875 13.3813Z" fill="#03050F"/>
</svg>
